<?xml version="1.0" encoding="UTF-8"?>
<!DOCTYPE svg PUBLIC "-//W3C//DTD SVG 1.1//EN" "http://www.w3.org/Graphics/SVG/1.1/DTD/svg11.dtd">
<svg xmlns="http://www.w3.org/2000/svg" version="1.1" width="1200px" height="1200px" style="shape-rendering:geometricPrecision; text-rendering:geometricPrecision; image-rendering:optimizeQuality; fill-rule:evenodd; clip-rule:evenodd" xmlns:xlink="http://www.w3.org/1999/xlink">
<g><path style="opacity:0.997" fill="#e9e6ec" d="M 297.5,538.5 C 264.208,529.529 244.874,507.863 239.5,473.5C 238.581,440.155 252.915,415.989 282.5,401C 314.955,389.323 343.122,395.823 367,420.5C 385.898,446.174 388.564,473.507 375,502.5C 362.909,522.9 345.076,535.066 321.5,539C 313.472,539.698 305.472,539.532 297.5,538.5 Z"/></g>
<g><path style="opacity:0.999" fill="#b692e5" d="M 239.5,473.5 C 244.874,507.863 264.208,529.529 297.5,538.5C 296.957,538.56 296.624,538.893 296.5,539.5C 298.808,547.322 299.808,555.322 299.5,563.5C 299.208,566.376 299.208,569.043 299.5,571.5C 291.16,571.334 282.827,571.5 274.5,572C 270.167,573.833 265.833,575.667 261.5,577.5C 260.5,598.489 260.167,619.489 260.5,640.5C 235.915,657.922 209.582,663.589 181.5,657.5C 139.746,645.674 115.246,618.34 108,575.5C 104.943,529.427 123.776,495.927 164.5,475C 189.326,465.56 214.326,465.06 239.5,473.5 Z"/></g>
<g><path style="opacity:1" fill="#636dca" d="M 299.5,563.5 C 316.958,563.225 333.625,566.725 349.5,574C 355.409,577.426 361.409,580.592 367.5,583.5C 368.319,616.792 368.819,650.125 369,683.5C 373.814,701.307 385.481,710.641 404,711.5C 408.209,711.024 412.376,710.358 416.5,709.5C 406.784,750.047 382.784,778.547 344.5,795C 293.22,812.803 248.387,802.637 210,764.5C 183.813,733.425 174.313,697.759 181.5,657.5C 209.582,663.589 235.915,657.922 260.5,640.5C 260.5,663.833 260.5,687.167 260.5,710.5C 265.604,709.113 270.604,707.446 275.5,705.5C 275.5,686.5 275.5,667.5 275.5,648.5C 291.503,648.667 307.503,648.5 323.5,648C 325.629,643.574 327.629,639.074 329.5,634.5C 311.512,633.5 293.512,633.167 275.5,633.5C 275.5,630.5 275.5,627.5 275.5,624.5C 276.117,624.611 276.617,624.944 277,625.5C 286.634,614.12 293.134,601.12 296.5,586.5C 305.506,586.666 314.506,586.5 323.5,586C 325.629,581.574 327.629,577.074 329.5,572.5C 319.522,571.501 309.522,571.168 299.5,571.5C 299.208,569.043 299.208,566.376 299.5,563.5 Z"/></g>
<g><path style="opacity:0.982" fill="#000001" d="M 383.5,597.5 C 382.167,624.167 382.167,650.833 383.5,677.5C 385.869,692.206 394.535,698.372 409.5,696C 414.452,694.388 417.785,691.221 419.5,686.5C 422.208,683.044 423.541,679.044 423.5,674.5C 428.624,672.901 433.624,670.901 438.5,668.5C 441.354,687.8 434.02,701.467 416.5,709.5C 412.376,710.358 408.209,711.024 404,711.5C 385.481,710.641 373.814,701.307 369,683.5C 368.819,650.125 368.319,616.792 367.5,583.5C 367.192,581.076 367.526,578.743 368.5,576.5C 373.376,574.099 378.376,572.099 383.5,570.5C 383.5,579.5 383.5,588.5 383.5,597.5 Z"/></g>
<g><path style="opacity:0.953" fill="#020204" d="M 910.5,570.5 C 923.818,569.319 929.318,575.319 927,588.5C 923.345,595.07 917.845,597.237 910.5,595C 899.899,586.838 899.899,578.671 910.5,570.5 Z"/></g>
<g><path style="opacity:0.998" fill="#000000" d="M 299.5,571.5 C 309.522,571.168 319.522,571.501 329.5,572.5C 327.629,577.074 325.629,581.574 323.5,586C 314.506,586.5 305.506,586.666 296.5,586.5C 289.5,586.5 282.5,586.5 275.5,586.5C 275.5,599.167 275.5,611.833 275.5,624.5C 275.5,627.5 275.5,630.5 275.5,633.5C 293.512,633.167 311.512,633.5 329.5,634.5C 327.629,639.074 325.629,643.574 323.5,648C 307.503,648.5 291.503,648.667 275.5,648.5C 275.5,667.5 275.5,686.5 275.5,705.5C 270.604,707.446 265.604,709.113 260.5,710.5C 260.5,687.167 260.5,663.833 260.5,640.5C 260.167,619.489 260.5,598.489 261.5,577.5C 265.833,575.667 270.167,573.833 274.5,572C 282.827,571.5 291.16,571.334 299.5,571.5 Z"/></g>
<g><path style="opacity:1" fill="#b592e5" d="M 296.5,586.5 C 293.134,601.12 286.634,614.12 277,625.5C 276.617,624.944 276.117,624.611 275.5,624.5C 275.5,611.833 275.5,599.167 275.5,586.5C 282.5,586.5 289.5,586.5 296.5,586.5 Z"/></g>
<g><path style="opacity:1" fill="#343868" d="M 383.5,597.5 C 384.167,597.5 384.5,597.833 384.5,598.5C 383.502,624.661 383.169,650.995 383.5,677.5C 382.167,650.833 382.167,624.167 383.5,597.5 Z"/></g>
<g><path style="opacity:1" fill="#636dc9" d="M 384.5,598.5 C 408.676,622.665 420.343,651.998 419.5,686.5C 417.785,691.221 414.452,694.388 409.5,696C 394.535,698.372 385.869,692.206 383.5,677.5C 383.169,650.995 383.502,624.661 384.5,598.5 Z"/></g>
<g><path style="opacity:0.955" fill="#010102" d="M 502.5,606.5 C 526.634,603.837 541.468,614.17 547,637.5C 547.667,651.833 547.667,666.167 547,680.5C 541.487,703.984 526.654,714.15 502.5,711C 487.698,706.531 478.865,696.698 476,681.5C 475.333,666.5 475.333,651.5 476,636.5C 479.055,621.285 487.888,611.285 502.5,606.5 Z M 509.5,621.5 C 520.949,621.802 528.115,627.469 531,638.5C 531.934,653.555 531.6,668.555 530,683.5C 522.609,696.369 512.442,699.203 499.5,692C 495.619,689.072 493.119,685.239 492,680.5C 491.333,666.167 491.333,651.833 492,637.5C 494.898,628.761 500.731,623.428 509.5,621.5 Z"/></g>
<g><path style="opacity:0.947" fill="#010102" d="M 610.5,606.5 C 635.739,604.104 650.739,615.27 655.5,640C 655.167,640.833 654.833,641.667 654.5,642.5C 649.624,644.901 644.624,646.901 639.5,648.5C 641.178,633.192 634.511,624.192 619.5,621.5C 609.544,622.623 603.044,627.956 600,637.5C 599.833,660.174 599.333,682.841 598.5,705.5C 593.624,707.901 588.624,709.901 583.5,711.5C 583.045,684.79 583.545,658.124 585,631.5C 589.443,618.889 597.943,610.555 610.5,606.5 Z"/></g>
<g><path style="opacity:0.954" fill="#020203" d="M 719.5,606.5 C 740.596,604.121 754.763,612.787 762,632.5C 763.117,645.455 763.617,658.455 763.5,671.5C 763.167,682.833 762.833,694.167 762.5,705.5C 757.624,707.901 752.624,709.901 747.5,711.5C 747.667,694.163 747.5,676.83 747,659.5C 736.931,663.858 726.764,668.024 716.5,672C 706.532,677.528 705.199,684.528 712.5,693C 715.963,694.8 719.63,695.966 723.5,696.5C 727.574,695.712 731.574,694.712 735.5,693.5C 736.762,698.283 738.428,702.95 740.5,707.5C 723.494,715.254 708.66,712.254 696,698.5C 690.791,689.572 690.124,680.239 694,670.5C 696.128,667.37 698.628,664.537 701.5,662C 715.238,655.467 729.238,649.467 743.5,644C 745.478,643.519 746.811,642.353 747.5,640.5C 742.97,623.606 732.636,618.439 716.5,625C 710.556,629.722 707.389,635.888 707,643.5C 702.141,645.734 697.308,648.067 692.5,650.5C 690.015,628.675 699.015,614.008 719.5,606.5 Z"/></g>
<g><path style="opacity:0.947" fill="#010102" d="M 920.5,606.5 C 921.5,606.5 922.5,606.5 923.5,606.5C 923.333,631.169 923.5,655.836 924,680.5C 929.157,694.217 938.657,698.717 952.5,694C 959.149,689.216 963.149,682.716 964.5,674.5C 969.167,672.5 973.833,670.5 978.5,668.5C 981.26,685.739 975.26,698.906 960.5,708C 936.388,716.973 919.222,709.807 909,686.5C 907.882,673.378 907.382,660.211 907.5,647C 907.833,635.5 908.167,624 908.5,612.5C 912.692,610.672 916.692,608.672 920.5,606.5 Z"/></g>
<g><path style="opacity:0.979" fill="#010102" d="M 805.5,608.5 C 828.176,608.167 850.843,608.5 873.5,609.5C 857.04,637.585 840.707,665.751 824.5,694C 840.844,694.167 857.177,694.667 873.5,695.5C 871.629,700.074 869.629,704.574 867.5,709C 843.833,709.667 820.167,709.667 796.5,709C 813.366,680.964 830.033,652.797 846.5,624.5C 830.844,623.667 815.177,623.167 799.5,623C 801.924,618.321 803.924,613.488 805.5,608.5 Z"/></g>
</svg>
