<?xml version="1.0" encoding="UTF-8"?>
<!DOCTYPE svg PUBLIC "-//W3C//DTD SVG 1.1//EN" "http://www.w3.org/Graphics/SVG/1.1/DTD/svg11.dtd">
<svg xmlns="http://www.w3.org/2000/svg" version="1.1" width="563px" height="443px" style="shape-rendering:geometricPrecision; text-rendering:geometricPrecision; image-rendering:optimizeQuality; fill-rule:evenodd; clip-rule:evenodd" xmlns:xlink="http://www.w3.org/1999/xlink">
<g><path style="opacity:0.651" fill="#f2b3d0" d="M 129.5,154.5 C 127.784,154.629 126.117,154.962 124.5,155.5C 125.315,154.163 126.482,153.163 128,152.5C 128.717,153.044 129.217,153.711 129.5,154.5 Z"/></g>
<g><path style="opacity:0.999" fill="#df4e89" d="M 129.5,154.5 C 129.427,156.027 130.094,157.027 131.5,157.5C 131.427,159.027 132.094,160.027 133.5,160.5C 134.674,161.514 135.34,162.847 135.5,164.5C 135.5,167.5 135.5,170.5 135.5,173.5C 135.5,174.167 135.5,174.833 135.5,175.5C 134.024,177.769 132.524,180.102 131,182.5C 130.517,181.552 130.351,180.552 130.5,179.5C 130.929,175.541 129.929,172.041 127.5,169C 125.203,169.112 123.536,170.278 122.5,172.5C 121.778,172.918 121.278,173.584 121,174.5C 120.991,177.369 120.824,180.036 120.5,182.5C 118.05,177.475 117.05,172.142 117.5,166.5C 117.555,163.386 118.888,161.052 121.5,159.5C 122.906,159.027 123.573,158.027 123.5,156.5C 123.5,155.833 123.833,155.5 124.5,155.5C 126.117,154.962 127.784,154.629 129.5,154.5 Z"/></g>
<g><path style="opacity:0.463" fill="#f0abcb" d="M 129.5,154.5 C 130.906,154.973 131.573,155.973 131.5,157.5C 130.094,157.027 129.427,156.027 129.5,154.5 Z"/></g>
<g><path style="opacity:0.471" fill="#f0accb" d="M 123.5,156.5 C 123.573,158.027 122.906,159.027 121.5,159.5C 121.427,157.973 122.094,156.973 123.5,156.5 Z"/></g>
<g><path style="opacity:0.4" fill="#f0afce" d="M 131.5,157.5 C 132.906,157.973 133.573,158.973 133.5,160.5C 132.094,160.027 131.427,159.027 131.5,157.5 Z"/></g>
<g><path style="opacity:0.702" fill="#c79cca" d="M 107.5,165.5 C 105.833,166.167 104.167,166.833 102.5,167.5C 103.591,164.808 105.257,164.142 107.5,165.5 Z"/></g>
<g><path style="opacity:1" fill="#904197" d="M 107.5,165.5 C 108.167,165.5 108.5,165.833 108.5,166.5C 109.262,168.262 110.596,169.262 112.5,169.5C 113.833,170.167 114.833,171.167 115.5,172.5C 117.484,176.278 118.317,180.278 118,184.5C 117.722,183.584 117.222,182.918 116.5,182.5C 115.461,180.469 113.795,179.136 111.5,178.5C 111.158,177.662 110.492,177.328 109.5,177.5C 108.25,177.577 107.417,178.244 107,179.5C 106.444,181.885 106.61,184.218 107.5,186.5C 108.219,188.888 109.885,190.388 112.5,191C 111.552,191.483 110.552,191.649 109.5,191.5C 107.819,189.992 105.819,188.992 103.5,188.5C 101.902,186.302 100.569,183.969 99.5,181.5C 99.5524,177.802 99.8857,174.135 100.5,170.5C 101.598,169.603 101.598,168.77 100.5,168C 101.094,167.536 101.761,167.369 102.5,167.5C 104.167,166.833 105.833,166.167 107.5,165.5 Z"/></g>
<g><path style="opacity:0.698" fill="#cfacd3" d="M 150.5,165.5 C 148.898,167.074 146.898,167.741 144.5,167.5C 146.214,166.262 148.214,165.595 150.5,165.5 Z"/></g>
<g><path style="opacity:1" fill="#8b3893" d="M 150.5,165.5 C 150.833,165.5 151.167,165.5 151.5,165.5C 153.167,165.5 154.833,165.5 156.5,165.5C 156.5,169.167 156.5,172.833 156.5,176.5C 156.116,180.272 154.45,183.272 151.5,185.5C 150.167,186.167 149.167,187.167 148.5,188.5C 148.5,189.167 148.167,189.5 147.5,189.5C 145.821,189.715 144.821,189.048 144.5,187.5C 145.65,184.573 146.65,181.573 147.5,178.5C 146.995,177.081 145.995,176.415 144.5,176.5C 142.302,176.12 140.635,176.787 139.5,178.5C 137.856,178.81 136.856,179.81 136.5,181.5C 135.542,181.953 134.708,182.619 134,183.5C 133.601,183.272 133.435,182.938 133.5,182.5C 134.227,180.046 135.227,177.713 136.5,175.5C 136.5,174.833 136.5,174.167 136.5,173.5C 136.833,173.5 137.167,173.5 137.5,173.5C 138.833,172.833 139.833,171.833 140.5,170.5C 140.5,169.833 140.833,169.5 141.5,169.5C 142.71,169.068 143.71,168.401 144.5,167.5C 146.898,167.741 148.898,167.074 150.5,165.5 Z"/></g>
<g><path style="opacity:0.337" fill="#ebd4e0" d="M 135.5,164.5 C 136.268,165.263 136.768,166.263 137,167.5C 138.225,163.82 139.058,164.153 139.5,168.5C 138.5,168.5 137.5,168.5 136.5,168.5C 136.5,170.167 136.5,171.833 136.5,173.5C 136.167,173.5 135.833,173.5 135.5,173.5C 135.5,170.5 135.5,167.5 135.5,164.5 Z"/></g>
<g><path style="opacity:0.055" fill="#e0dbe1" d="M 144.5,167.5 C 143.71,168.401 142.71,169.068 141.5,169.5C 141.389,168.883 141.056,168.383 140.5,168C 141.793,167.51 143.127,167.343 144.5,167.5 Z"/></g>
<g><path style="opacity:0.71" fill="#caa5ce" d="M 151.5,165.5 C 154.747,163.968 157.414,164.801 159.5,168C 158.004,170.714 157.004,173.547 156.5,176.5C 156.5,172.833 156.5,169.167 156.5,165.5C 154.833,165.5 153.167,165.5 151.5,165.5 Z"/></g>
<g><path style="opacity:0.043" fill="#ecdae7" d="M 108.5,166.5 C 111.556,167.588 114.556,167.588 117.5,166.5C 117.05,172.142 118.05,177.475 120.5,182.5C 118.816,187.561 117.483,187.561 116.5,182.5C 117.222,182.918 117.722,183.584 118,184.5C 118.317,180.278 117.484,176.278 115.5,172.5C 116.434,171.432 116.768,170.099 116.5,168.5C 114.901,168.232 113.568,168.566 112.5,169.5C 110.596,169.262 109.262,168.262 108.5,166.5 Z"/></g>
<g><path style="opacity:0.38" fill="#ceb2d1" d="M 140.5,170.5 C 139.833,171.833 138.833,172.833 137.5,173.5C 137.5,171.5 138.5,170.5 140.5,170.5 Z"/></g>
<g><path style="opacity:0.325" fill="#dabedd" d="M 100.5,170.5 C 99.8857,174.135 99.5524,177.802 99.5,181.5C 98.0976,177.71 98.4309,174.044 100.5,170.5 Z"/></g>
<g><path style="opacity:0.035" fill="#e4cfe6" d="M 144.5,176.5 C 143.07,177.537 141.403,178.204 139.5,178.5C 140.635,176.787 142.302,176.12 144.5,176.5 Z"/></g>
<g><path style="opacity:0.064" fill="#eae6e9" d="M 139.5,178.5 C 139.5,182.5 139.5,186.5 139.5,190.5C 137.969,191.925 138.302,192.591 140.5,192.5C 139.34,194.203 140.007,194.869 142.5,194.5C 142.5,195.167 142.167,195.5 141.5,195.5C 139.65,196.242 138.984,197.242 139.5,198.5C 139.5,200.5 139.5,202.5 139.5,204.5C 142.833,204.5 146.167,204.5 149.5,204.5C 149.5,204.833 149.5,205.167 149.5,205.5C 146.347,205.157 144.013,205.49 142.5,206.5C 142.158,207.338 141.492,207.672 140.5,207.5C 140.167,204.833 139.833,204.833 139.5,207.5C 138.833,207.5 138.167,207.5 137.5,207.5C 137.5,203.833 137.5,200.167 137.5,196.5C 136.5,196.5 135.5,196.5 134.5,196.5C 133.662,196.158 133.328,195.492 133.5,194.5C 134.833,194.5 136.167,194.5 137.5,194.5C 137.818,189.968 137.485,185.634 136.5,181.5C 136.856,179.81 137.856,178.81 139.5,178.5 Z"/></g>
<g><path style="opacity:0.388" fill="#f6d3e4" d="M 122.5,172.5 C 121.204,176.129 121.538,179.629 123.5,183C 122.238,184.927 121.238,184.76 120.5,182.5C 120.824,180.036 120.991,177.369 121,174.5C 121.278,173.584 121.778,172.918 122.5,172.5 Z"/></g>
<g><path style="opacity:0.004" fill="#f1d8e9" d="M 135.5,175.5 C 135.833,175.5 136.167,175.5 136.5,175.5C 135.227,177.713 134.227,180.046 133.5,182.5C 132.549,183.919 132.216,185.585 132.5,187.5C 131.71,186.391 131.21,185.058 131,183.5C 130.107,184.711 129.274,184.711 128.5,183.5C 128.994,181.974 129.661,180.641 130.5,179.5C 130.351,180.552 130.517,181.552 131,182.5C 132.524,180.102 134.024,177.769 135.5,175.5 Z"/></g>
<g><path style="opacity:0.804" fill="#cba4cf" d="M 136.5,181.5 C 135.489,183.372 134.655,185.372 134,187.5C 133.31,188.738 132.81,188.738 132.5,187.5C 132.216,185.585 132.549,183.919 133.5,182.5C 133.435,182.938 133.601,183.272 134,183.5C 134.708,182.619 135.542,181.953 136.5,181.5 Z"/></g>
<g><path style="opacity:0.008" fill="#eddfef" d="M 151.5,185.5 C 151.5,187.5 150.5,188.5 148.5,188.5C 149.167,187.167 150.167,186.167 151.5,185.5 Z"/></g>
<g><path style="opacity:0.819" fill="#ed9fc2" d="M 168.5,189.5 C 163.5,189.5 158.5,189.5 153.5,189.5C 155.586,188.391 157.92,187.724 160.5,187.5C 162.472,188.157 164.305,188.157 166,187.5C 166.995,188.066 167.828,188.733 168.5,189.5 Z"/></g>
<g><path style="opacity:1" fill="#e25c92" d="M 101.5,188.5 C 103.635,190.071 105.968,191.404 108.5,192.5C 108.631,193.239 108.464,193.906 108,194.5C 107.329,193.748 106.496,193.414 105.5,193.5C 103.5,193.5 101.5,193.5 99.5,193.5C 96.9781,194.665 96.9781,195.998 99.5,197.5C 100.71,197.932 101.71,198.599 102.5,199.5C 103.609,200.29 104.942,200.79 106.5,201C 105.584,201.278 104.918,201.778 104.5,202.5C 104.5,202.833 104.5,203.167 104.5,203.5C 102.901,203.768 101.568,203.434 100.5,202.5C 98.9724,201.691 97.3057,201.024 95.5,200.5C 95.0269,199.094 94.0269,198.427 92.5,198.5C 91.5,198.167 90.8333,197.5 90.5,196.5C 89.1667,194.167 89.1667,191.833 90.5,189.5C 94.0687,187.559 97.7353,187.226 101.5,188.5 Z"/></g>
<g><path style="opacity:0.125" fill="#efd2e5" d="M 101.5,188.5 C 102.167,188.5 102.833,188.5 103.5,188.5C 105.819,188.992 107.819,189.992 109.5,191.5C 108.833,191.5 108.5,191.833 108.5,192.5C 105.968,191.404 103.635,190.071 101.5,188.5 Z"/></g>
<g><path style="opacity:1" fill="#712976" d="M 130.5,190.5 C 130.738,192.404 131.738,193.738 133.5,194.5C 133.328,195.492 133.662,196.158 134.5,196.5C 136.189,200.379 135.522,203.712 132.5,206.5C 131.167,207.167 130.167,208.167 129.5,209.5C 125.833,212.167 122.167,212.167 118.5,209.5C 118.027,208.094 117.027,207.427 115.5,207.5C 115.573,205.973 114.906,204.973 113.5,204.5C 112.596,203.791 112.263,202.791 112.5,201.5C 112.5,200.5 112.5,199.5 112.5,198.5C 112.5,198.167 112.5,197.833 112.5,197.5C 113.89,196.101 114.89,194.434 115.5,192.5C 116.833,191.833 117.833,190.833 118.5,189.5C 122.758,187.938 126.758,188.272 130.5,190.5 Z"/></g>
<g><path style="opacity:1" fill="#cb8fc0" d="M 144.5,187.5 C 144.821,189.048 145.821,189.715 147.5,189.5C 149.259,189.954 151.259,189.954 153.5,189.5C 151.485,190.924 149.152,191.59 146.5,191.5C 145.738,193.262 144.404,194.262 142.5,194.5C 143.66,192.797 142.993,192.131 140.5,192.5C 138.302,192.591 137.969,191.925 139.5,190.5C 141.332,189.752 142.999,188.752 144.5,187.5 Z"/></g>
<g><path style="opacity:1" fill="#dd4685" d="M 153.5,189.5 C 158.5,189.5 163.5,189.5 168.5,189.5C 171.649,189.415 174.316,190.415 176.5,192.5C 175.925,194.411 174.925,196.078 173.5,197.5C 172.094,197.973 171.427,198.973 171.5,200.5C 170.564,201.974 169.23,202.974 167.5,203.5C 165.847,203.66 164.514,204.326 163.5,205.5C 161.485,206.924 159.152,207.59 156.5,207.5C 151.737,207.774 147.07,207.441 142.5,206.5C 144.013,205.49 146.347,205.157 149.5,205.5C 151.967,205.245 153.967,204.245 155.5,202.5C 155.833,201.5 156.5,200.833 157.5,200.5C 159.121,200.213 160.121,199.213 160.5,197.5C 160.043,196.702 159.376,196.369 158.5,196.5C 158.167,196.5 157.833,196.5 157.5,196.5C 155.71,195.003 153.544,194.336 151,194.5C 148.456,194.336 146.29,195.003 144.5,196.5C 144.167,196.5 143.833,196.5 143.5,196.5C 142.508,196.672 141.842,196.338 141.5,195.5C 142.167,195.5 142.5,195.167 142.5,194.5C 144.404,194.262 145.738,193.262 146.5,191.5C 149.152,191.59 151.485,190.924 153.5,189.5 Z"/></g>
<g><path style="opacity:0.935" fill="#eda3c2" d="M 90.5,189.5 C 89.1667,191.833 89.1667,194.167 90.5,196.5C 88.6977,195.685 87.6977,194.185 87.5,192C 87.7483,190.251 88.7483,189.418 90.5,189.5 Z"/></g>
<g><path style="opacity:0.439" fill="#d4bcd6" d="M 118.5,189.5 C 117.833,190.833 116.833,191.833 115.5,192.5C 115.5,190.5 116.5,189.5 118.5,189.5 Z"/></g>
<g><path style="opacity:0.694" fill="#c7a8c9" d="M 130.5,190.5 C 132.262,191.262 133.262,192.596 133.5,194.5C 131.738,193.738 130.738,192.404 130.5,190.5 Z"/></g>
<g><path style="opacity:0.627" fill="#bd92c1" d="M 267.5,193.5 C 263.802,193.552 260.135,193.886 256.5,194.5C 260.044,192.431 263.71,192.098 267.5,193.5 Z"/></g>
<g><path style="opacity:0.631" fill="#cdafcf" d="M 534.5,197.5 C 533.038,196.542 531.705,195.376 530.5,194C 528.455,193.51 526.455,193.677 524.5,194.5C 529.143,190.129 532.477,191.129 534.5,197.5 Z"/></g>
<g><path style="opacity:0.998" fill="#7e2b84" d="M 267.5,193.5 C 267.171,208.676 267.504,223.676 268.5,238.5C 269.833,238.5 271.167,238.5 272.5,238.5C 273.625,239.348 273.625,240.348 272.5,241.5C 270.834,243.828 268.501,244.828 265.5,244.5C 261.988,244.919 259.654,243.586 258.5,240.5C 258.829,226.323 258.496,212.323 257.5,198.5C 255.517,198.843 254.183,198.176 253.5,196.5C 255.027,196.573 256.027,195.906 256.5,194.5C 260.135,193.886 263.802,193.552 267.5,193.5 Z"/></g>
<g><path style="opacity:1" fill="#843489" d="M 534.5,197.5 C 535.403,201.033 534.069,203.699 530.5,205.5C 529.167,205.5 527.833,205.5 526.5,205.5C 526.027,204.094 525.027,203.427 523.5,203.5C 523.5,203.167 523.5,202.833 523.5,202.5C 523.401,199.763 523.735,197.096 524.5,194.5C 526.455,193.677 528.455,193.51 530.5,194C 531.705,195.376 533.038,196.542 534.5,197.5 Z"/></g>
<g><path style="opacity:0.227" fill="#d7c1d9" d="M 228.5,193.5 C 228.389,194.117 228.056,194.617 227.5,195C 218.173,195.5 208.839,195.666 199.5,195.5C 199.5,196.5 199.5,197.5 199.5,198.5C 198.691,197.531 197.691,196.698 196.5,196C 197.167,195.667 197.833,195.333 198.5,195C 208.719,194.622 218.719,194.122 228.5,193.5 Z"/></g>
<g><path style="opacity:0.999" fill="#7f2b84" d="M 228.5,193.5 C 230.436,197.715 231.103,202.381 230.5,207.5C 229,206.375 227.667,205.041 226.5,203.5C 225.662,203.158 225.328,202.492 225.5,201.5C 225.5,200.167 224.833,199.5 223.5,199.5C 223.158,198.662 222.492,198.328 221.5,198.5C 218.721,198.279 216.054,198.612 213.5,199.5C 212.51,205.645 212.177,211.978 212.5,218.5C 215.713,218.81 218.713,218.477 221.5,217.5C 222.492,217.672 223.158,217.338 223.5,216.5C 223.328,215.508 223.662,214.842 224.5,214.5C 226.423,218.029 227.089,222.029 226.5,226.5C 225.222,226.218 224.222,225.551 223.5,224.5C 223.5,222.5 222.5,221.5 220.5,221.5C 220.167,221.5 219.833,221.5 219.5,221.5C 217.393,220.532 215.059,220.198 212.5,220.5C 212.181,225.363 212.514,230.03 213.5,234.5C 214.234,235.708 214.567,237.041 214.5,238.5C 214.539,239.583 214.873,240.583 215.5,241.5C 212.5,241.833 209.5,242.167 206.5,242.5C 203.087,242.483 200.087,241.816 197.5,240.5C 198.795,239.512 200.128,238.512 201.5,237.5C 202.659,226.007 202.826,214.341 202,202.5C 201.722,201.584 201.222,200.918 200.5,200.5C 199.662,200.158 199.328,199.492 199.5,198.5C 199.5,197.5 199.5,196.5 199.5,195.5C 208.839,195.666 218.173,195.5 227.5,195C 228.056,194.617 228.389,194.117 228.5,193.5 Z"/></g>
<g><path style="opacity:0.058" fill="#eae1e7" d="M 109.5,177.5 C 110.492,177.328 111.158,177.662 111.5,178.5C 111.177,182.226 111.511,185.893 112.5,189.5C 114.802,190.999 114.469,192.332 111.5,193.5C 111.833,193.833 112.167,194.167 112.5,194.5C 113.518,193.807 114.518,193.141 115.5,192.5C 114.89,194.434 113.89,196.101 112.5,197.5C 111.356,196.817 111.356,197.151 112.5,198.5C 112.5,199.5 112.5,200.5 112.5,201.5C 111.837,203.473 111.504,205.639 111.5,208C 111.533,210.61 112.2,212.777 113.5,214.5C 113.5,214.833 113.5,215.167 113.5,215.5C 111.708,215.366 110.042,215.699 108.5,216.5C 108.158,215.662 107.492,215.328 106.5,215.5C 106.918,214.778 107.584,214.278 108.5,214C 107.906,213.536 107.239,213.369 106.5,213.5C 107.209,212.596 108.209,212.263 109.5,212.5C 109.675,210.379 109.341,208.379 108.5,206.5C 110.698,206.591 111.031,205.925 109.5,204.5C 109.5,201.833 109.5,199.167 109.5,196.5C 105.958,196.187 102.625,196.521 99.5,197.5C 96.9781,195.998 96.9781,194.665 99.5,193.5C 101.5,194.833 103.5,194.833 105.5,193.5C 106.496,193.414 107.329,193.748 108,194.5C 108.464,193.906 108.631,193.239 108.5,192.5C 109.167,192.5 109.5,192.167 109.5,191.5C 110.552,191.649 111.552,191.483 112.5,191C 109.885,190.388 108.219,188.888 107.5,186.5C 108.117,186.611 108.617,186.944 109,187.5C 109.498,184.183 109.665,180.85 109.5,177.5 Z"/></g>
<g><path style="opacity:0.063" fill="#e8dee3" d="M 157.5,196.5 C 153.167,196.5 148.833,196.5 144.5,196.5C 146.29,195.003 148.456,194.336 151,194.5C 153.544,194.336 155.71,195.003 157.5,196.5 Z"/></g>
<g><path style="opacity:0.037" fill="#dbd4dc" d="M 256.5,194.5 C 256.027,195.906 255.027,196.573 253.5,196.5C 252.5,196.5 251.5,196.5 250.5,196.5C 250.649,197.552 250.483,198.552 250,199.5C 249.333,197.833 249.333,196.167 250,194.5C 252.12,195.605 254.287,195.605 256.5,194.5 Z"/></g>
<g><path style="opacity:0.757" fill="#edafcc" d="M 141.5,195.5 C 141.842,196.338 142.508,196.672 143.5,196.5C 142.486,197.674 141.153,198.34 139.5,198.5C 138.984,197.242 139.65,196.242 141.5,195.5 Z"/></g>
<g><path style="opacity:0.004" fill="#f1dee7" d="M 176.5,192.5 C 179.507,195.848 178.507,197.515 173.5,197.5C 174.925,196.078 175.925,194.411 176.5,192.5 Z"/></g>
<g><path style="opacity:0.36" fill="#d3b9d6" d="M 228.5,193.5 C 228.735,192.903 229.235,192.57 230,192.5C 231.274,193.535 232.44,194.702 233.5,196C 231.919,199.7 230.919,203.533 230.5,207.5C 231.103,202.381 230.436,197.715 228.5,193.5 Z"/></g>
<g><path style="opacity:0.343" fill="#d0b2d3" d="M 267.5,193.5 C 268.267,194.172 268.934,195.005 269.5,196C 268.905,210.234 268.571,224.401 268.5,238.5C 267.504,223.676 267.171,208.676 267.5,193.5 Z"/></g>
<g><path style="opacity:0.6" fill="#f1afce" d="M 92.5,198.5 C 94.0269,198.427 95.0269,199.094 95.5,200.5C 93.9731,200.573 92.9731,199.906 92.5,198.5 Z"/></g>
<g><path style="opacity:0.004" fill="#f9dae9" d="M 173.5,197.5 C 173.573,199.027 172.906,200.027 171.5,200.5C 171.427,198.973 172.094,197.973 173.5,197.5 Z"/></g>
<g><path style="opacity:0.839" fill="#b485b7" d="M 524.5,194.5 C 523.735,197.096 523.401,199.763 523.5,202.5C 522.784,200.444 522.117,198.277 521.5,196C 522.527,195.487 523.527,194.987 524.5,194.5 Z"/></g>
<g><path style="opacity:0.965" fill="#eb8cb4" d="M 158.5,196.5 C 159.376,196.369 160.043,196.702 160.5,197.5C 160.121,199.213 159.121,200.213 157.5,200.5C 157.833,199.167 158.167,197.833 158.5,196.5 Z"/></g>
<g><path style="opacity:0.057" fill="#dfdcdf" d="M 221.5,198.5 C 222.492,198.328 223.158,198.662 223.5,199.5C 222.698,200.952 222.198,202.618 222,204.5C 221.505,202.527 221.338,200.527 221.5,198.5 Z"/></g>
<g><path style="opacity:0.576" fill="#d3b6d5" d="M 223.5,199.5 C 224.833,199.5 225.5,200.167 225.5,201.5C 224.5,201.167 223.833,200.5 223.5,199.5 Z"/></g>
<g><path style="opacity:0.284" fill="#dac3dc" d="M 257.5,198.5 C 258.496,212.323 258.829,226.323 258.5,240.5C 257.673,235.349 257.173,230.016 257,224.5C 253.59,223.126 253.757,222.459 257.5,222.5C 257.5,214.5 257.5,206.5 257.5,198.5 Z"/></g>
<g><path style="opacity:0.035" fill="#f9e4ef" d="M 95.5,200.5 C 97.3057,201.024 98.9724,201.691 100.5,202.5C 96.1667,202.5 91.8333,202.5 87.5,202.5C 90.1667,201.833 92.8333,201.167 95.5,200.5 Z"/></g>
<g><path style="opacity:0.176" fill="#f8dcea" d="M 102.5,199.5 C 104.604,199.201 106.604,199.534 108.5,200.5C 107.68,202.111 106.346,202.778 104.5,202.5C 104.918,201.778 105.584,201.278 106.5,201C 104.942,200.79 103.609,200.29 102.5,199.5 Z"/></g>
<g><path style="opacity:0.168" fill="#ddc7df" d="M 213.5,199.5 C 213.5,205.5 213.5,211.5 213.5,217.5C 216.167,217.5 218.833,217.5 221.5,217.5C 218.713,218.477 215.713,218.81 212.5,218.5C 212.177,211.978 212.51,205.645 213.5,199.5 Z"/></g>
<g><path style="opacity:0.855" fill="#eb91b9" d="M 155.5,202.5 C 153.967,204.245 151.967,205.245 149.5,205.5C 149.5,205.167 149.5,204.833 149.5,204.5C 151.421,203.637 153.421,202.971 155.5,202.5 Z"/></g>
<g><path style="opacity:0.773" fill="#ed9ac0" d="M 81.5,203.5 C 79.0948,204.768 76.4282,205.435 73.5,205.5C 75.8383,203.96 78.5049,203.294 81.5,203.5 Z"/></g>
<g><path style="opacity:1" fill="#de4b87" d="M 87.5,202.5 C 91.8333,202.5 96.1667,202.5 100.5,202.5C 101.568,203.434 102.901,203.768 104.5,203.5C 99.8333,204.167 95.1667,204.833 90.5,205.5C 90.1667,205.5 89.8333,205.5 89.5,205.5C 86.0836,205.528 83.0836,206.528 80.5,208.5C 79.3406,210.25 77.674,211.25 75.5,211.5C 72.4372,213.051 69.7705,215.218 67.5,218C 70.367,218.801 73.0336,218.634 75.5,217.5C 76.5,217.5 77.5,217.5 78.5,217.5C 80.4147,217.784 82.0813,217.451 83.5,216.5C 84.5,216.5 85.5,216.5 86.5,216.5C 91.1859,216.162 95.8525,215.995 100.5,216C 99.5842,216.278 98.9175,216.778 98.5,217.5C 93.8496,218.83 89.183,220.163 84.5,221.5C 81.5568,221.98 78.8902,222.98 76.5,224.5C 70.1696,227.994 63.5029,230.994 56.5,233.5C 54.847,233.66 53.5137,234.326 52.5,235.5C 50.8185,237.008 48.8185,238.008 46.5,238.5C 45.5,238.5 44.5,238.5 43.5,238.5C 44.4608,235.574 45.1274,232.574 45.5,229.5C 47.4077,228.514 48.4077,226.848 48.5,224.5C 49.5,224.167 50.1667,223.5 50.5,222.5C 50.7376,220.596 51.7376,219.262 53.5,218.5C 56.7642,216.906 59.4309,214.573 61.5,211.5C 62.5137,210.326 63.847,209.66 65.5,209.5C 67.0269,209.573 68.0269,208.906 68.5,207.5C 69.9303,206.463 71.597,205.796 73.5,205.5C 76.4282,205.435 79.0948,204.768 81.5,203.5C 83.2646,202.539 85.2646,202.205 87.5,202.5 Z"/></g>
<g><path style="opacity:0.533" fill="#f3c1d9" d="M 104.5,203.5 C 106.292,203.366 107.958,203.699 109.5,204.5C 111.031,205.925 110.698,206.591 108.5,206.5C 102.545,205.637 96.5451,205.303 90.5,205.5C 95.1667,204.833 99.8333,204.167 104.5,203.5 Z"/></g>
<g><path style="opacity:0.049" fill="#eee4e9" d="M 167.5,203.5 C 167.206,206.481 165.872,207.148 163.5,205.5C 164.514,204.326 165.847,203.66 167.5,203.5 Z"/></g>
<g><path style="opacity:0.349" fill="#d3b6d5" d="M 523.5,203.5 C 525.027,203.427 526.027,204.094 526.5,205.5C 524.973,205.573 523.973,204.906 523.5,203.5 Z"/></g>
<g><path style="opacity:0.016" fill="#e4d5e5" d="M 113.5,204.5 C 114.906,204.973 115.573,205.973 115.5,207.5C 114.094,207.027 113.427,206.027 113.5,204.5 Z"/></g>
<g><path style="opacity:0.086" fill="#e0d6e1" d="M 474.5,209.5 C 472.05,209.702 469.717,209.369 467.5,208.5C 467.167,208.5 466.833,208.5 466.5,208.5C 468.626,207.897 470.959,207.897 473.5,208.5C 474.045,204.828 474.378,205.162 474.5,209.5 Z"/></g>
<g><path style="opacity:0.065" fill="#eddbe4" d="M 89.5,205.5 C 87.7857,206.738 85.7857,207.405 83.5,207.5C 83.6633,209.857 83.4966,212.19 83,214.5C 82.9633,212.026 82.13,210.026 80.5,208.5C 83.0836,206.528 86.0836,205.528 89.5,205.5 Z"/></g>
<g><path style="opacity:0.235" fill="#e9d3e4" d="M 142.5,206.5 C 147.07,207.441 151.737,207.774 156.5,207.5C 154.5,208.167 152.5,208.833 150.5,209.5C 146.204,208.537 141.871,208.371 137.5,209C 139.058,209.21 140.391,209.71 141.5,210.5C 139.612,212.988 138.945,215.988 139.5,219.5C 139.167,219.5 138.833,219.5 138.5,219.5C 137.833,218.833 137.167,218.167 136.5,217.5C 138.006,214.531 137.673,211.698 135.5,209C 136.044,208.283 136.711,207.783 137.5,207.5C 138.167,207.5 138.833,207.5 139.5,207.5C 139.833,207.5 140.167,207.5 140.5,207.5C 141.492,207.672 142.158,207.338 142.5,206.5 Z"/></g>
<g><path style="opacity:0.008" fill="#e5d3e6" d="M 226.5,203.5 C 227.667,205.041 229,206.375 230.5,207.5C 229.791,208.404 228.791,208.737 227.5,208.5C 227.371,206.784 227.038,205.117 226.5,203.5 Z"/></g>
<g><path style="opacity:0.069" fill="#e2dce3" d="M 307.5,209.5 C 307.158,210.338 306.492,210.672 305.5,210.5C 305.367,207.075 306.033,206.742 307.5,209.5 Z"/></g>
<g><path style="opacity:0.733" fill="#efa4c5" d="M 68.5,207.5 C 68.0269,208.906 67.0269,209.573 65.5,209.5C 65.9731,208.094 66.9731,207.427 68.5,207.5 Z"/></g>
<g><path style="opacity:0.514" fill="#bd99c0" d="M 115.5,207.5 C 117.027,207.427 118.027,208.094 118.5,209.5C 116.973,209.573 115.973,208.906 115.5,207.5 Z"/></g>
<g><path style="opacity:0.004" fill="#e4d5e6" d="M 132.5,206.5 C 132.5,208.5 131.5,209.5 129.5,209.5C 130.167,208.167 131.167,207.167 132.5,206.5 Z"/></g>
<g><path style="opacity:0.203" fill="#dec9e0" d="M 200.5,200.5 C 201.222,200.918 201.722,201.584 202,202.5C 202.826,214.341 202.659,226.007 201.5,237.5C 201.405,225.216 201.072,212.883 200.5,200.5 Z"/></g>
<g><path style="opacity:0.373" fill="#dcc6de" d="M 429.5,209.5 C 425.5,209.5 421.5,209.5 417.5,209.5C 417.369,208.761 417.536,208.094 418,207.5C 421.935,208.138 425.769,208.804 429.5,209.5 Z"/></g>
<g><path style="opacity:0.459" fill="#ddcddf" d="M 526.5,205.5 C 527.833,205.5 529.167,205.5 530.5,205.5C 530.527,207.199 531.194,208.533 532.5,209.5C 530.167,209.5 527.833,209.5 525.5,209.5C 526.398,208.842 527.398,208.176 528.5,207.5C 527.757,206.818 527.091,206.151 526.5,205.5 Z"/></g>
<g><path style="opacity:0.737" fill="#ae78b3" d="M 466.5,208.5 C 466.833,208.5 467.167,208.5 467.5,208.5C 466.92,212.649 467.586,216.316 469.5,219.5C 469.294,221.549 468.461,221.883 467,220.5C 466.501,216.514 466.334,212.514 466.5,208.5 Z"/></g>
<g><path style="opacity:1" fill="#85378a" d="M 467.5,208.5 C 469.717,209.369 472.05,209.702 474.5,209.5C 481.508,209.334 488.508,209.5 495.5,210C 496.517,211.049 496.684,212.216 496,213.5C 493.575,216.053 491.408,218.72 489.5,221.5C 488.599,222.29 487.932,223.29 487.5,224.5C 484.794,228.859 482.127,233.192 479.5,237.5C 478.711,237.783 478.044,238.283 477.5,239C 481.689,239.812 485.689,239.645 489.5,238.5C 491.048,238.179 491.715,237.179 491.5,235.5C 492.1,234.1 493.1,233.1 494.5,232.5C 494.666,236.514 494.499,240.514 494,244.5C 492.601,243.773 491.101,243.273 489.5,243C 481.841,242.5 474.174,242.334 466.5,242.5C 466.5,241.5 466.5,240.5 466.5,239.5C 467.11,237.566 468.11,235.899 469.5,234.5C 471.262,233.738 472.262,232.404 472.5,230.5C 472.328,229.508 472.662,228.842 473.5,228.5C 474.401,227.71 475.068,226.71 475.5,225.5C 475.5,225.167 475.5,224.833 475.5,224.5C 476.5,224.167 477.167,223.5 477.5,222.5C 478.906,222.027 479.573,221.027 479.5,219.5C 480.906,219.027 481.573,218.027 481.5,216.5C 481.328,215.508 481.662,214.842 482.5,214.5C 483.043,214.44 483.376,214.107 483.5,213.5C 479.685,212.192 476.019,212.192 472.5,213.5C 471.833,213.5 471.5,213.833 471.5,214.5C 470.976,216.306 470.309,217.972 469.5,219.5C 467.586,216.316 466.92,212.649 467.5,208.5 Z"/></g>
<g><path style="opacity:1" fill="#924599" d="M 150.5,209.5 C 156.405,210.116 161.071,212.782 164.5,217.5C 165.026,219.23 166.026,220.564 167.5,221.5C 167.5,221.833 167.5,222.167 167.5,222.5C 167.833,223.5 168.5,224.167 169.5,224.5C 169.5,224.833 169.5,225.167 169.5,225.5C 170.405,226.964 170.405,228.298 169.5,229.5C 167.585,229.216 165.919,229.549 164.5,230.5C 155.917,232.313 148.25,230.313 141.5,224.5C 140.205,223.512 138.872,222.512 137.5,221.5C 137.328,220.508 137.662,219.842 138.5,219.5C 138.833,219.5 139.167,219.5 139.5,219.5C 143.972,221.216 148.638,221.882 153.5,221.5C 152.647,218.632 151.314,215.965 149.5,213.5C 149.027,212.094 148.027,211.427 146.5,211.5C 144.708,211.634 143.042,211.301 141.5,210.5C 140.391,209.71 139.058,209.21 137.5,209C 141.871,208.371 146.204,208.537 150.5,209.5 Z"/></g>
<g><path style="opacity:0.085" fill="#dedbdf" d="M 223.5,216.5 C 223.158,217.338 222.492,217.672 221.5,217.5C 221.337,215.143 221.503,212.81 222,210.5C 222.191,212.708 222.691,214.708 223.5,216.5 Z"/></g>
<g><path style="opacity:0.999" fill="#8b4090" d="M 322.5,210.5 C 319.918,210.025 317.918,210.692 316.5,212.5C 315.167,212.5 313.833,212.5 312.5,212.5C 311.167,212.5 310.5,213.167 310.5,214.5C 309.341,216.855 308.341,219.188 307.5,221.5C 306.167,224.5 306.167,227.5 307.5,230.5C 307.5,230.833 307.5,231.167 307.5,231.5C 307.054,234.01 307.72,236.01 309.5,237.5C 309.5,239.5 310.5,240.5 312.5,240.5C 312.5,240.833 312.5,241.167 312.5,241.5C 314.635,243.369 317.302,244.036 320.5,243.5C 315.647,244.413 310.814,244.746 306,244.5C 305.536,243.906 305.369,243.239 305.5,242.5C 304.738,240.738 303.404,239.738 301.5,239.5C 298.888,237.948 297.555,235.614 297.5,232.5C 297.5,228.5 297.5,224.5 297.5,220.5C 298.276,215.595 300.943,212.262 305.5,210.5C 306.492,210.672 307.158,210.338 307.5,209.5C 312.713,207.976 317.713,208.309 322.5,210.5 Z"/></g>
<g><path style="opacity:0.999" fill="#84358a" d="M 322.5,210.5 C 323.609,210.557 324.609,210.89 325.5,211.5C 325.427,213.027 326.094,214.027 327.5,214.5C 327.427,216.027 328.094,217.027 329.5,217.5C 331.213,218.635 331.88,220.302 331.5,222.5C 331.5,225.167 331.5,227.833 331.5,230.5C 331.741,234.019 330.407,236.685 327.5,238.5C 326.5,238.833 325.833,239.5 325.5,240.5C 324.341,242.25 322.674,243.25 320.5,243.5C 317.302,244.036 314.635,243.369 312.5,241.5C 315.888,242.031 317.888,240.697 318.5,237.5C 318.557,236.391 318.89,235.391 319.5,234.5C 320.833,228.833 320.833,223.167 319.5,217.5C 318.263,216.035 317.263,214.368 316.5,212.5C 317.918,210.692 319.918,210.025 322.5,210.5 Z"/></g>
<g><path style="opacity:0.922" fill="#ba8ebc" d="M 362.5,209.5 C 362.5,209.833 362.5,210.167 362.5,210.5C 360.958,211.301 359.292,211.634 357.5,211.5C 360.152,211.009 361.652,209.342 362,206.5C 362.483,207.448 362.649,208.448 362.5,209.5 Z"/></g>
<g><path style="opacity:1" fill="#7c2682" d="M 362.5,210.5 C 364.5,210.5 366.5,210.5 368.5,210.5C 368.187,213.247 368.52,215.914 369.5,218.5C 370.429,217.45 371.095,217.45 371.5,218.5C 370.23,224.963 370.23,231.296 371.5,237.5C 372.404,238.209 372.737,239.209 372.5,240.5C 370.429,241.809 367.929,242.475 365,242.5C 362.071,242.475 359.571,241.809 357.5,240.5C 359.179,240.715 360.179,240.048 360.5,238.5C 361.833,230.833 361.833,223.167 360.5,215.5C 359.282,214.839 357.949,214.172 356.5,213.5C 356.863,212.817 357.196,212.15 357.5,211.5C 359.292,211.634 360.958,211.301 362.5,210.5 Z"/></g>
<g><path style="opacity:1" fill="#914a95" d="M 369.5,210.5 C 369.338,212.527 369.505,214.527 370,216.5C 370.513,215.473 371.013,214.473 371.5,213.5C 371.328,212.508 371.662,211.842 372.5,211.5C 374.027,211.573 375.027,210.906 375.5,209.5C 383.79,207.433 387.29,210.767 386,219.5C 385.292,220.381 384.458,221.047 383.5,221.5C 381.167,222.833 378.833,222.833 376.5,221.5C 377.215,219.437 377.215,217.104 376.5,214.5C 374.668,213.282 373.668,213.949 373.5,216.5C 373.672,217.492 373.338,218.158 372.5,218.5C 372.167,218.5 371.833,218.5 371.5,218.5C 371.095,217.45 370.429,217.45 369.5,218.5C 368.52,215.914 368.187,213.247 368.5,210.5C 366.5,210.5 364.5,210.5 362.5,210.5C 362.5,210.167 362.5,209.833 362.5,209.5C 365.216,207.914 367.55,208.247 369.5,210.5 Z"/></g>
<g><path style="opacity:0.69" fill="#c7a1ca" d="M 375.5,209.5 C 375.027,210.906 374.027,211.573 372.5,211.5C 372.973,210.094 373.973,209.427 375.5,209.5 Z"/></g>
<g><path style="opacity:0.999" fill="#87398c" d="M 417.5,209.5 C 421.5,209.5 425.5,209.5 429.5,209.5C 431.553,209.402 433.22,210.069 434.5,211.5C 434.427,213.027 435.094,214.027 436.5,214.5C 437.338,214.842 437.672,215.508 437.5,216.5C 437.175,224.019 437.508,231.352 438.5,238.5C 439.702,239.405 441.036,239.405 442.5,238.5C 443.625,239.348 443.625,240.348 442.5,241.5C 440.834,243.828 438.501,244.828 435.5,244.5C 432.692,244.922 430.692,243.922 429.5,241.5C 429.719,240.325 429.386,239.325 428.5,238.5C 427.893,238.624 427.56,238.957 427.5,239.5C 426.415,241.587 424.749,242.92 422.5,243.5C 419.5,243.5 416.5,243.5 413.5,243.5C 413.027,242.094 412.027,241.427 410.5,241.5C 407.403,236.422 408.069,232.088 412.5,228.5C 414.027,228.573 415.027,227.906 415.5,226.5C 415.833,226.5 416.167,226.5 416.5,226.5C 417.492,226.672 418.158,226.338 418.5,225.5C 419.167,225.5 419.833,225.5 420.5,225.5C 423.167,225.5 425.833,225.5 428.5,225.5C 428.813,221.958 428.479,218.625 427.5,215.5C 427.715,213.821 427.048,212.821 425.5,212.5C 420.278,212.381 418.611,214.714 420.5,219.5C 420.167,220.167 419.833,220.833 419.5,221.5C 417.5,221.5 415.5,221.5 413.5,221.5C 412.25,221.423 411.417,220.756 411,219.5C 409.699,213.96 411.866,210.627 417.5,209.5 Z M 427.5,231.5 C 426.766,232.708 426.433,234.041 426.5,235.5C 425.5,235.833 424.833,236.5 424.5,237.5C 417.473,236.42 416.807,233.753 422.5,229.5C 423.93,229.579 425.264,229.246 426.5,228.5C 427.386,229.325 427.719,230.325 427.5,231.5 Z"/></g>
<g><path style="opacity:0.999" fill="#812f86" d="M 525.5,209.5 C 527.833,209.5 530.167,209.5 532.5,209.5C 532.173,219.348 532.506,229.014 533.5,238.5C 534.167,238.833 534.833,239.167 535.5,239.5C 537.179,239.285 538.179,239.952 538.5,241.5C 537.713,243.104 536.38,243.771 534.5,243.5C 531.833,243.5 529.167,243.5 526.5,243.5C 525.167,243.5 524.5,242.833 524.5,241.5C 524.826,232.651 524.493,223.984 523.5,215.5C 521.833,215.5 520.167,215.5 518.5,215.5C 518.886,211.446 521.22,209.446 525.5,209.5 Z"/></g>
<g><path style="opacity:0.105" fill="#e8daea" d="M 369.5,210.5 C 370.167,211.5 370.833,212.5 371.5,213.5C 371.013,214.473 370.513,215.473 370,216.5C 369.505,214.527 369.338,212.527 369.5,210.5 Z"/></g>
<g><path style="opacity:0.365" fill="#d5b6d9" d="M 146.5,211.5 C 148.027,211.427 149.027,212.094 149.5,213.5C 147.973,213.573 146.973,212.906 146.5,211.5 Z"/></g>
<g><path style="opacity:0.016" fill="#ecdfed" d="M 312.5,212.5 C 312.167,213.5 311.5,214.167 310.5,214.5C 310.5,213.167 311.167,212.5 312.5,212.5 Z"/></g>
<g><path style="opacity:0.659" fill="#c9a5cc" d="M 325.5,211.5 C 326.906,211.973 327.573,212.973 327.5,214.5C 326.094,214.027 325.427,213.027 325.5,211.5 Z"/></g>
<g><path style="opacity:0.902" fill="#bb8dbe" d="M 425.5,212.5 C 427.048,212.821 427.715,213.821 427.5,215.5C 426.599,214.71 425.932,213.71 425.5,212.5 Z"/></g>
<g><path style="opacity:0.663" fill="#cca8ce" d="M 434.5,211.5 C 435.906,211.973 436.573,212.973 436.5,214.5C 435.094,214.027 434.427,213.027 434.5,211.5 Z"/></g>
<g><path style="opacity:0.418" fill="#be95c2" d="M 472.5,213.5 C 476.019,212.192 479.685,212.192 483.5,213.5C 483.376,214.107 483.043,214.44 482.5,214.5C 480.052,213.527 477.385,213.194 474.5,213.5C 473.833,213.5 473.167,213.5 472.5,213.5 Z"/></g>
<g><path style="opacity:0.111" fill="#e3e0e3" d="M 471.5,214.5 C 471.5,213.833 471.833,213.5 472.5,213.5C 473.167,213.5 473.833,213.5 474.5,213.5C 474.5,216.5 474.5,219.5 474.5,222.5C 475.5,222.5 476.5,222.5 477.5,222.5C 477.167,223.5 476.5,224.167 475.5,224.5C 474.356,223.817 474.356,224.151 475.5,225.5C 475.068,226.71 474.401,227.71 473.5,228.5C 473.615,223.672 471.448,222.339 467,224.5C 465.933,223.809 464.766,223.309 463.5,223C 466.817,222.502 470.15,222.335 473.5,222.5C 474.036,219.302 473.369,216.635 471.5,214.5 Z"/></g>
<g><path style="opacity:0.922" fill="#ed99be" d="M 106.5,213.5 C 107.239,213.369 107.906,213.536 108.5,214C 107.584,214.278 106.918,214.778 106.5,215.5C 105.833,215.5 105.5,215.833 105.5,216.5C 103.139,216.674 100.806,217.007 98.5,217.5C 98.9175,216.778 99.5842,216.278 100.5,216C 95.8525,215.995 91.1859,216.162 86.5,216.5C 92.9418,214.873 99.6085,213.873 106.5,213.5 Z"/></g>
<g><path style="opacity:0.156" fill="#dec9e1" d="M 357.5,211.5 C 357.196,212.15 356.863,212.817 356.5,213.5C 357.949,214.172 359.282,214.839 360.5,215.5C 358.833,215.5 357.167,215.5 355.5,215.5C 355.157,213.517 355.824,212.183 357.5,211.5 Z"/></g>
<g><path style="opacity:0.722" fill="#ec98bd" d="M 61.5,211.5 C 59.4309,214.573 56.7642,216.906 53.5,218.5C 55.5691,215.427 58.2358,213.094 61.5,211.5 Z"/></g>
<g><path style="opacity:0.635" fill="#d7b9da" d="M 111.5,217.5 C 112.167,216.833 112.833,216.167 113.5,215.5C 113.5,215.167 113.5,214.833 113.5,214.5C 115.856,213.425 118.189,213.425 120.5,214.5C 117.696,216.101 114.696,217.101 111.5,217.5 Z"/></g>
<g><path style="opacity:0.379" fill="#cdadd0" d="M 224.5,214.5 C 225.209,213.596 226.209,213.263 227.5,213.5C 227.249,216.909 227.583,220.242 228.5,223.5C 228.058,224.739 227.391,225.739 226.5,226.5C 227.089,222.029 226.423,218.029 224.5,214.5 Z"/></g>
<g><path style="opacity:0.031" fill="#e2cee4" d="M 376.5,214.5 C 375.5,215.167 374.5,215.833 373.5,216.5C 373.668,213.949 374.668,213.282 376.5,214.5 Z"/></g>
<g><path style="opacity:0.251" fill="#efd2e1" d="M 83.5,216.5 C 82.0813,217.451 80.4147,217.784 78.5,217.5C 79.8775,216.766 81.3775,216.099 83,215.5C 83.3988,215.728 83.5654,216.062 83.5,216.5 Z"/></g>
<g><path style="opacity:0.022" fill="#e7e2e7" d="M 167.5,221.5 C 166.026,220.564 165.026,219.23 164.5,217.5C 165.117,217.389 165.617,217.056 166,216.5C 166.608,218.154 167.108,219.821 167.5,221.5 Z"/></g>
<g><path style="opacity:0.561" fill="#be92c1" d="M 327.5,214.5 C 328.906,214.973 329.573,215.973 329.5,217.5C 328.094,217.027 327.427,216.027 327.5,214.5 Z"/></g>
<g><path style="opacity:0.282" fill="#f2b7d3" d="M 75.5,211.5 C 74.0401,213.463 72.3734,215.296 70.5,217C 72.1341,217.494 73.8008,217.66 75.5,217.5C 73.0336,218.634 70.367,218.801 67.5,218C 69.7705,215.218 72.4372,213.051 75.5,211.5 Z"/></g>
<g><path style="opacity:0.988" fill="#b27ab8" d="M 113.5,215.5 C 112.833,216.167 112.167,216.833 111.5,217.5C 110.209,217.263 109.209,217.596 108.5,218.5C 106.483,219.529 104.483,220.529 102.5,221.5C 102.5,220.167 101.833,219.5 100.5,219.5C 102.072,218.313 103.739,217.313 105.5,216.5C 106.5,216.5 107.5,216.5 108.5,216.5C 110.042,215.699 111.708,215.366 113.5,215.5 Z"/></g>
<g><path style="opacity:0.808" fill="#f3b9d3" d="M 122.5,221.5 C 122.737,220.209 122.404,219.209 121.5,218.5C 122.901,215.685 124.901,214.352 127.5,214.5C 125.566,216.724 123.899,219.058 122.5,221.5 Z"/></g>
<g><path style="opacity:0.655" fill="#c8a3cb" d="M 481.5,216.5 C 481.573,218.027 480.906,219.027 479.5,219.5C 479.427,217.973 480.094,216.973 481.5,216.5 Z"/></g>
<g><path style="opacity:0.076" fill="#e8e5e9" d="M 108.5,218.5 C 109.209,217.596 110.209,217.263 111.5,217.5C 111.5,219.167 111.5,220.833 111.5,222.5C 113.833,222.5 116.167,222.5 118.5,222.5C 118.5,223.167 118.167,223.5 117.5,223.5C 116.395,224.6 115.062,225.267 113.5,225.5C 114.969,223.895 114.635,223.395 112.5,224C 111.226,224.977 111.226,225.811 112.5,226.5C 111.71,227.401 110.71,228.068 109.5,228.5C 109.5,226.833 109.5,225.167 109.5,223.5C 105.865,224.114 102.198,224.448 98.5,224.5C 99.4363,223.026 100.77,222.026 102.5,221.5C 104.607,222.468 106.941,222.802 109.5,222.5C 109.768,220.901 109.434,219.568 108.5,218.5 Z"/></g>
<g><path style="opacity:0.2" fill="#f5e1ec" d="M 134.5,215.5 C 133.375,216.348 133.375,217.348 134.5,218.5C 133.088,220.23 133.422,221.73 135.5,223C 134.364,224.145 133.364,225.312 132.5,226.5C 132.806,223.615 132.473,220.948 131.5,218.5C 131.539,217.417 131.873,216.417 132.5,215.5C 133.257,214.227 133.923,214.227 134.5,215.5 Z"/></g>
<g><path style="opacity:0.788" fill="#bd8cc2" d="M 134.5,215.5 C 135.5,215.833 136.167,216.5 136.5,217.5C 137.167,218.167 137.833,218.833 138.5,219.5C 137.662,219.842 137.328,220.508 137.5,221.5C 136.167,220.833 135.167,219.833 134.5,218.5C 133.375,217.348 133.375,216.348 134.5,215.5 Z"/></g>
<g><path style="opacity:0.71" fill="#c9a0cd" d="M 100.5,219.5 C 100.027,220.906 99.0269,221.573 97.5,221.5C 97.9731,220.094 98.9731,219.427 100.5,219.5 Z"/></g>
<g><path style="opacity:0.31" fill="#f4c5db" d="M 121.5,218.5 C 121.573,220.027 120.906,221.027 119.5,221.5C 119.427,219.973 120.094,218.973 121.5,218.5 Z"/></g>
<g><path style="opacity:0.043" fill="#e4d3e6" d="M 420.5,219.5 C 421.757,220.623 421.424,221.289 419.5,221.5C 419.833,220.833 420.167,220.167 420.5,219.5 Z"/></g>
<g><path style="opacity:0.6" fill="#d7bdd9" d="M 371.5,218.5 C 371.833,218.5 372.167,218.5 372.5,218.5C 372.567,219.959 372.234,221.292 371.5,222.5C 371.5,223.167 371.5,223.833 371.5,224.5C 371.5,228.833 371.5,233.167 371.5,237.5C 370.23,231.296 370.23,224.963 371.5,218.5 Z"/></g>
<g><path style="opacity:0.451" fill="#c6a0ca" d="M 479.5,219.5 C 479.573,221.027 478.906,222.027 477.5,222.5C 477.427,220.973 478.094,219.973 479.5,219.5 Z"/></g>
<g><path style="opacity:0.024" fill="#e6dfe7" d="M 95.5,222.5 C 94.6935,223.728 93.6935,224.728 92.5,225.5C 92.1667,225.5 91.8333,225.5 91.5,225.5C 91.1193,224.069 90.1193,223.236 88.5,223C 90.8098,222.503 93.1432,222.337 95.5,222.5 Z"/></g>
<g><path style="opacity:0.024" fill="#e2d8e4" d="M 167.5,222.5 C 168.833,222.5 169.5,223.167 169.5,224.5C 168.5,224.167 167.833,223.5 167.5,222.5 Z"/></g>
<g><path style="opacity:0.004" fill="#ecedec" d="M 198.5,222.5 C 199.833,223.167 199.833,223.167 198.5,222.5 Z"/></g>
<g><path style="opacity:0.056" fill="#edecee" d="M 376.5,221.5 C 378.833,222.833 381.167,222.833 383.5,221.5C 384.602,223.092 383.935,223.925 381.5,224C 378.183,224.498 374.85,224.665 371.5,224.5C 371.5,223.833 371.5,223.167 371.5,222.5C 373.415,222.784 375.081,222.451 376.5,221.5 Z"/></g>
<g><path style="opacity:0.037" fill="#e7dfe7" d="M 427.5,215.5 C 428.479,218.625 428.813,221.958 428.5,225.5C 425.833,225.5 423.167,225.5 420.5,225.5C 422.631,224.686 424.964,224.186 427.5,224C 426,223.833 424.5,223.667 423,223.5C 421.014,223.569 419.514,224.235 418.5,225.5C 418.158,226.338 417.492,226.672 416.5,226.5C 418.137,224.876 417.803,223.876 415.5,223.5C 413.44,224.528 411.44,224.528 409.5,223.5C 410.949,222.828 412.282,222.161 413.5,221.5C 415.5,221.5 417.5,221.5 419.5,221.5C 421.948,222.473 424.615,222.806 427.5,222.5C 427.5,220.167 427.5,217.833 427.5,215.5 Z M 420.5,225.5 C 419.833,225.5 419.167,225.5 418.5,225.5C 419.514,224.235 421.014,223.569 423,223.5C 424.5,223.667 426,223.833 427.5,224C 424.964,224.186 422.631,224.686 420.5,225.5 Z"/></g>
<g><path style="opacity:0.041" fill="#eeedee" d="M 523.5,222.5 C 523.5,223.167 523.5,223.833 523.5,224.5C 518.371,223.386 518.371,222.719 523.5,222.5 Z"/></g>
<g><path style="opacity:0.298" fill="#e9c7d8" d="M 50.5,222.5 C 50.1667,223.5 49.5,224.167 48.5,224.5C 48.5,223.167 49.1667,222.5 50.5,222.5 Z"/></g>
<g><path style="opacity:0.051" fill="#e8dee3" d="M 84.5,221.5 C 85.2625,222.268 86.2625,222.768 87.5,223C 86.2068,223.49 84.8734,223.657 83.5,223.5C 83.6495,224.552 83.4828,225.552 83,226.5C 81.2458,224.75 79.0792,224.083 76.5,224.5C 78.8902,222.98 81.5568,221.98 84.5,221.5 Z"/></g>
<g><path style="opacity:1" fill="#9b53a2" d="M 100.5,219.5 C 101.833,219.5 102.5,220.167 102.5,221.5C 100.77,222.026 99.4363,223.026 98.5,224.5C 97.1667,225.5 95.8333,226.5 94.5,227.5C 94.5,226.167 93.8333,225.5 92.5,225.5C 93.6935,224.728 94.6935,223.728 95.5,222.5C 95.8417,221.662 96.5084,221.328 97.5,221.5C 99.0269,221.573 100.027,220.906 100.5,219.5 Z"/></g>
<g><path style="opacity:0.098" fill="#dcd2dd" d="M 137.5,221.5 C 138.872,222.512 140.205,223.512 141.5,224.5C 140.127,224.657 138.793,224.49 137.5,224C 136.402,223.23 136.402,222.397 137.5,221.5 Z"/></g>
<g><path style="opacity:0.02" fill="#e5dce6" d="M 489.5,221.5 C 490.674,223.368 490.007,224.368 487.5,224.5C 487.932,223.29 488.599,222.29 489.5,221.5 Z"/></g>
<g><path style="opacity:0.033" fill="#dccfdd" d="M 219.5,221.5 C 212.191,222.312 212.524,222.312 220.5,221.5C 222.5,221.5 223.5,222.5 223.5,224.5C 222.732,225.263 222.232,226.263 222,227.5C 221.51,226.207 221.343,224.873 221.5,223.5C 219.08,223.292 216.747,223.626 214.5,224.5C 213.513,227.768 213.18,231.102 213.5,234.5C 212.514,230.03 212.181,225.363 212.5,220.5C 215.059,220.198 217.393,220.532 219.5,221.5 Z"/></g>
<g><path style="opacity:0.459" fill="#c49fc7" d="M 307.5,221.5 C 309.628,222.281 309.795,223.281 308,224.5C 307.505,226.473 307.338,228.473 307.5,230.5C 306.167,227.5 306.167,224.5 307.5,221.5 Z"/></g>
<g><path style="opacity:0.021" fill="#e7e4e7" d="M 331.5,230.5 C 331.5,227.833 331.5,225.167 331.5,222.5C 333.045,221.77 333.878,220.437 334,218.5C 334.667,222.5 334.667,226.5 334,230.5C 333.667,228.167 333.333,225.833 333,223.5C 332.814,226.036 332.314,228.369 331.5,230.5 Z"/></g>
<g><path style="opacity:0.49" fill="#bf95c2" d="M 360.5,215.5 C 361.833,223.167 361.833,230.833 360.5,238.5C 360.666,233.821 360.499,229.155 360,224.5C 359.5,224 359,223.5 358.5,223C 360.291,220.894 360.958,218.394 360.5,215.5 Z"/></g>
<g><path style="opacity:0.295" fill="#d4b9d7" d="M 437.5,216.5 C 438.216,218.556 438.883,220.723 439.5,223C 438.529,228.072 438.195,233.238 438.5,238.5C 437.508,231.352 437.175,224.019 437.5,216.5 Z"/></g>
<g><path style="opacity:0.86" fill="#a96fac" d="M 523.5,215.5 C 524.493,223.984 524.826,232.651 524.5,241.5C 522.287,236.067 521.953,230.401 523.5,224.5C 523.5,223.833 523.5,223.167 523.5,222.5C 522.918,220.331 522.918,217.998 523.5,215.5 Z"/></g>
<g><path style="opacity:0.429" fill="#c7a4cb" d="M 532.5,209.5 C 533.216,214.034 533.883,218.701 534.5,223.5C 533.552,228.435 533.219,233.435 533.5,238.5C 532.506,229.014 532.173,219.348 532.5,209.5 Z"/></g>
<g><path style="opacity:0.667" fill="#c49ec7" d="M 297.5,220.5 C 297.5,224.5 297.5,228.5 297.5,232.5C 297.019,229.218 296.019,226.051 294.5,223C 295.691,222.302 296.691,221.469 297.5,220.5 Z"/></g>
<g><path style="opacity:0.008" fill="#ede3ee" d="M 319.5,217.5 C 320.833,223.167 320.833,228.833 319.5,234.5C 319.108,228.68 319.108,223.013 319.5,217.5 Z"/></g>
<g><path style="opacity:1" fill="#8c3a94" d="M 91.5,225.5 C 91.8333,225.5 92.1667,225.5 92.5,225.5C 93.8333,225.5 94.5,226.167 94.5,227.5C 92.4707,229.858 90.4707,232.192 88.5,234.5C 86.7497,235.659 85.7497,237.326 85.5,239.5C 85.2041,241.403 84.5375,243.07 83.5,244.5C 81.1731,247.144 80.5065,250.144 81.5,253.5C 82.8549,252.812 83.8549,251.812 84.5,250.5C 84.8333,249.5 85.5,248.833 86.5,248.5C 88.1667,247.5 89.5,246.167 90.5,244.5C 93.7642,242.906 96.4309,240.573 98.5,237.5C 101.093,236.246 103.427,234.58 105.5,232.5C 106.338,232.842 106.672,233.508 106.5,234.5C 104.833,235.5 103.5,236.833 102.5,238.5C 101.92,240.749 100.587,242.415 98.5,243.5C 96.7376,244.262 95.7376,245.596 95.5,247.5C 91.8154,254.206 88.1488,260.873 84.5,267.5C 82.9348,269.509 81.9348,271.843 81.5,274.5C 81.7373,275.791 81.404,276.791 80.5,277.5C 79.2318,279.905 78.5651,282.572 78.5,285.5C 77.2568,287.964 76.2568,290.63 75.5,293.5C 74.8165,293.137 74.1499,292.804 73.5,292.5C 68.6634,282.689 67.33,272.355 69.5,261.5C 70.9238,259.485 71.5905,257.152 71.5,254.5C 71.5,254.167 71.5,253.833 71.5,253.5C 73.2132,252.365 73.8799,250.698 73.5,248.5C 73.5,248.167 73.5,247.833 73.5,247.5C 74.9063,247.027 75.573,246.027 75.5,244.5C 76.9063,244.027 77.573,243.027 77.5,241.5C 79.369,239.966 80.7023,237.966 81.5,235.5C 81.3284,234.508 81.6618,233.842 82.5,233.5C 85.7843,231.883 88.4509,229.55 90.5,226.5C 90.5,225.833 90.8333,225.5 91.5,225.5 Z"/></g>
<g><path style="opacity:0.141" fill="#e0cbe2" d="M 223.5,224.5 C 224.222,225.551 225.222,226.218 226.5,226.5C 225.791,227.404 224.791,227.737 223.5,227.5C 223.5,226.5 223.5,225.5 223.5,224.5 Z"/></g>
<g><path style="opacity:1" fill="#a969ae" d="M 117.5,223.5 C 117.737,224.791 117.404,225.791 116.5,226.5C 115.29,226.932 114.29,227.599 113.5,228.5C 113.167,229.5 112.5,230.167 111.5,230.5C 109.81,230.856 108.81,231.856 108.5,233.5C 108.5,234.167 108.167,234.5 107.5,234.5C 107.167,234.5 106.833,234.5 106.5,234.5C 106.672,233.508 106.338,232.842 105.5,232.5C 105.5,232.167 105.5,231.833 105.5,231.5C 106.795,230.512 108.128,229.512 109.5,228.5C 110.71,228.068 111.71,227.401 112.5,226.5C 112.5,225.833 112.833,225.5 113.5,225.5C 115.062,225.267 116.395,224.6 117.5,223.5 Z"/></g>
<g><path style="opacity:0.125" fill="#f5e4ef" d="M 116.5,226.5 C 116.672,227.492 116.338,228.158 115.5,228.5C 114.833,228.5 114.167,228.5 113.5,228.5C 114.29,227.599 115.29,226.932 116.5,226.5 Z"/></g>
<g><path style="opacity:0.192" fill="#ddc4e0" d="M 169.5,225.5 C 172.022,227.002 172.022,228.335 169.5,229.5C 172.022,228.335 172.022,227.002 169.5,225.5 Z"/></g>
<g><path style="opacity:0.753" fill="#bf93c2" d="M 415.5,226.5 C 415.027,227.906 414.027,228.573 412.5,228.5C 412.973,227.094 413.973,226.427 415.5,226.5 Z"/></g>
<g><path style="opacity:0.624" fill="#c298c5" d="M 427.5,231.5 C 427.719,230.325 427.386,229.325 426.5,228.5C 425.264,229.246 423.93,229.579 422.5,229.5C 424.102,227.926 426.102,227.259 428.5,227.5C 428.768,229.099 428.434,230.432 427.5,231.5 Z"/></g>
<g><path style="opacity:0.98" fill="#ec8eb4" d="M 48.5,224.5 C 48.4077,226.848 47.4077,228.514 45.5,229.5C 45.7497,227.326 46.7497,225.659 48.5,224.5 Z"/></g>
<g><path style="opacity:0.082" fill="#dfcce1" d="M 164.5,230.5 C 165.919,229.549 167.585,229.216 169.5,229.5C 167.926,230.928 166.259,231.261 164.5,230.5 Z"/></g>
<g><path style="opacity:0.533" fill="#cfaed2" d="M 90.5,226.5 C 88.4509,229.55 85.7843,231.883 82.5,233.5C 84.5232,230.48 87.1898,228.146 90.5,226.5 Z"/></g>
<g><path style="opacity:0.029" fill="#e9e2ea" d="M 111.5,230.5 C 111.5,231.5 111.5,232.5 111.5,233.5C 110.5,233.5 109.5,233.5 108.5,233.5C 108.81,231.856 109.81,230.856 111.5,230.5 Z"/></g>
<g><path style="opacity:0.647" fill="#bf93c1" d="M 472.5,230.5 C 472.262,232.404 471.262,233.738 469.5,234.5C 469.738,232.596 470.738,231.262 472.5,230.5 Z"/></g>
<g><path style="opacity:0.2" fill="#dac1dc" d="M 494.5,232.5 C 493.1,233.1 492.1,234.1 491.5,235.5C 491.5,234.167 491.5,232.833 491.5,231.5C 492.791,231.263 493.791,231.596 494.5,232.5 Z"/></g>
<g><path style="opacity:0.769" fill="#f1accb" d="M 115.5,230.5 C 115.741,232.898 115.074,234.898 113.5,236.5C 113.595,234.214 114.262,232.214 115.5,230.5 Z"/></g>
<g><path style="opacity:1" fill="#de4c88" d="M 121.5,218.5 C 122.404,219.209 122.737,220.209 122.5,221.5C 121.326,222.514 120.66,223.847 120.5,225.5C 118.926,227.102 118.259,229.102 118.5,231.5C 118.5,235.833 118.5,240.167 118.5,244.5C 118.054,247.01 118.72,249.01 120.5,250.5C 121.852,254.32 122.852,253.986 123.5,249.5C 124.66,245.353 125.993,241.353 127.5,237.5C 129.163,235.562 129.829,233.228 129.5,230.5C 129.5,229.167 129.5,227.833 129.5,226.5C 130.738,224.786 131.405,222.786 131.5,220.5C 131.5,219.833 131.5,219.167 131.5,218.5C 132.473,220.948 132.806,223.615 132.5,226.5C 132.756,230.269 132.423,233.936 131.5,237.5C 130.281,251.988 129.448,266.654 129,281.5C 128.329,280.748 127.496,280.414 126.5,280.5C 123.532,278.523 121.198,275.856 119.5,272.5C 119.773,270.549 119.107,269.049 117.5,268C 117.833,267.667 118.167,267.333 118.5,267C 117.309,266.302 116.309,265.469 115.5,264.5C 111.004,255.552 110.337,246.219 113.5,236.5C 115.074,234.898 115.741,232.898 115.5,230.5C 115.5,229.833 115.5,229.167 115.5,228.5C 116.338,228.158 116.672,227.492 116.5,226.5C 117.404,225.791 117.737,224.791 117.5,223.5C 118.167,223.5 118.5,223.167 118.5,222.5C 118.5,221.833 118.833,221.5 119.5,221.5C 120.906,221.027 121.573,220.027 121.5,218.5 Z M 129.5,226.5 C 129.5,227.833 129.5,229.167 129.5,230.5C 128.388,232.599 127.721,234.933 127.5,237.5C 125.993,241.353 124.66,245.353 123.5,249.5C 122.609,250.11 121.609,250.443 120.5,250.5C 120.125,248.302 119.458,246.302 118.5,244.5C 118.5,240.167 118.5,235.833 118.5,231.5C 119.738,229.786 120.405,227.786 120.5,225.5C 123.009,224.887 125.509,224.22 128,223.5C 129.039,224.244 129.539,225.244 129.5,226.5 Z"/></g>
<g><path style="opacity:0.325" fill="#f5cade" d="M 120.5,225.5 C 120.405,227.786 119.738,229.786 118.5,231.5C 118.259,229.102 118.926,227.102 120.5,225.5 Z"/></g>
<g><path style="opacity:0.046" fill="#f0e9ed" d="M 131.5,220.5 C 131.405,222.786 130.738,224.786 129.5,226.5C 129.539,225.244 129.039,224.244 128,223.5C 125.509,224.22 123.009,224.887 120.5,225.5C 120.66,223.847 121.326,222.514 122.5,221.5C 125.654,222.967 128.654,222.634 131.5,220.5 Z"/></g>
<g><path style="opacity:0.082" fill="#ece0e6" d="M 56.5,233.5 C 55.713,235.104 54.3797,235.771 52.5,235.5C 53.5137,234.326 54.847,233.66 56.5,233.5 Z"/></g>
<g><path style="opacity:0.569" fill="#d2afd5" d="M 105.5,231.5 C 105.5,231.833 105.5,232.167 105.5,232.5C 103.427,234.58 101.093,236.246 98.5,237.5C 100.239,234.757 102.573,232.757 105.5,231.5 Z"/></g>
<g><path style="opacity:0.796" fill="#eea1c3" d="M 129.5,230.5 C 129.829,233.228 129.163,235.562 127.5,237.5C 127.721,234.933 128.388,232.599 129.5,230.5 Z"/></g>
<g><path style="opacity:0.808" fill="#c7a0c9" d="M 307.5,231.5 C 308.458,233.302 309.125,235.302 309.5,237.5C 307.72,236.01 307.054,234.01 307.5,231.5 Z"/></g>
<g><path style="opacity:0.063" fill="#e7e8e7" d="M 445.5,235.5 C 446.629,237.628 446.796,239.961 446,242.5C 445.503,240.19 445.337,237.857 445.5,235.5 Z"/></g>
<g><path style="opacity:0.204" fill="#e2cce4" d="M 88.5,234.5 C 88.2503,236.674 87.2503,238.341 85.5,239.5C 85.7497,237.326 86.7497,235.659 88.5,234.5 Z"/></g>
<g><path style="opacity:0.012" fill="#e9d8eb" d="M 106.5,234.5 C 106.833,234.5 107.167,234.5 107.5,234.5C 106.415,236.587 104.749,237.92 102.5,238.5C 103.5,236.833 104.833,235.5 106.5,234.5 Z"/></g>
<g><path style="opacity:0.048" fill="#e4e5e4" d="M 193.5,236.5 C 194.634,238.966 194.801,241.633 194,244.5C 193.503,241.854 193.336,239.187 193.5,236.5 Z"/></g>
<g><path style="opacity:0.037" fill="#d9dad9" d="M 277.5,236.5 C 278.613,237.946 278.78,239.613 278,241.5C 277.506,239.866 277.34,238.199 277.5,236.5 Z"/></g>
<g><path style="opacity:0.565" fill="#d5b8d7" d="M 426.5,235.5 C 426.5,236.833 425.833,237.5 424.5,237.5C 424.833,236.5 425.5,235.833 426.5,235.5 Z"/></g>
<g><path style="opacity:0.702" fill="#c8a2ca" d="M 491.5,235.5 C 491.715,237.179 491.048,238.179 489.5,238.5C 489.932,237.29 490.599,236.29 491.5,235.5 Z"/></g>
<g><path style="opacity:0.867" fill="#ee99be" d="M 45.5,229.5 C 45.1274,232.574 44.4608,235.574 43.5,238.5C 44.5,238.5 45.5,238.5 46.5,238.5C 45.7095,239.401 44.7095,240.068 43.5,240.5C 42.596,239.791 42.2627,238.791 42.5,237.5C 42.7329,234.458 43.7329,231.792 45.5,229.5 Z"/></g>
<g><path style="opacity:0.565" fill="#d7bbd9" d="M 309.5,237.5 C 310.833,238.167 311.833,239.167 312.5,240.5C 310.5,240.5 309.5,239.5 309.5,237.5 Z"/></g>
<g><path style="opacity:0.706" fill="#caa6cd" d="M 427.5,239.5 C 427.56,238.957 427.893,238.624 428.5,238.5C 429.386,239.325 429.719,240.325 429.5,241.5C 428.833,240.833 428.167,240.167 427.5,239.5 Z"/></g>
<g><path style="opacity:0.051" fill="#ece0ed" d="M 479.5,237.5 C 482.625,238.479 485.958,238.813 489.5,238.5C 485.689,239.645 481.689,239.812 477.5,239C 478.044,238.283 478.711,237.783 479.5,237.5 Z"/></g>
<g><path style="opacity:0.576" fill="#d2b3d4" d="M 538.5,241.5 C 538.179,239.952 537.179,239.285 535.5,239.5C 536.261,238.609 537.261,237.942 538.5,237.5C 539.782,238.958 539.782,240.292 538.5,241.5 Z"/></g>
<g><path style="opacity:0.443" fill="#d7bdd9" d="M 272.5,238.5 C 273.472,237.249 274.139,237.582 274.5,239.5C 274.253,240.713 273.586,241.38 272.5,241.5C 273.625,240.348 273.625,239.348 272.5,238.5 Z"/></g>
<g><path style="opacity:0.863" fill="#bd90c0" d="M 301.5,239.5 C 303.404,239.738 304.738,240.738 305.5,242.5C 303.596,242.262 302.262,241.262 301.5,239.5 Z"/></g>
<g><path style="opacity:0.012" fill="#dec7e0" d="M 327.5,238.5 C 327.5,239.833 326.833,240.5 325.5,240.5C 325.833,239.5 326.5,238.833 327.5,238.5 Z"/></g>
<g><path style="opacity:0.706" fill="#cba6cd" d="M 360.5,238.5 C 360.179,240.048 359.179,240.715 357.5,240.5C 358.29,239.599 359.29,238.932 360.5,238.5 Z"/></g>
<g><path style="opacity:0.506" fill="#d4b6d6" d="M 442.5,238.5 C 443.472,237.249 444.139,237.582 444.5,239.5C 444.253,240.713 443.586,241.38 442.5,241.5C 443.625,240.348 443.625,239.348 442.5,238.5 Z"/></g>
<g><path style="opacity:0.008" fill="#fbeff5" d="M 42.5,237.5 C 42.2627,238.791 42.596,239.791 43.5,240.5C 42.528,241.751 41.8614,241.418 41.5,239.5C 41.5427,238.584 41.8761,237.917 42.5,237.5 Z"/></g>
<g><path style="opacity:0.996" fill="#b279b7" d="M 81.5,235.5 C 80.7023,237.966 79.369,239.966 77.5,241.5C 77.8449,238.802 79.1782,236.802 81.5,235.5 Z"/></g>
<g><path style="opacity:0.631" fill="#c9a0cd" d="M 98.5,237.5 C 96.4309,240.573 93.7642,242.906 90.5,244.5C 92.5691,241.427 95.2358,239.094 98.5,237.5 Z"/></g>
<g><path style="opacity:0.976" fill="#b37fb6" d="M 318.5,237.5 C 317.888,240.697 315.888,242.031 312.5,241.5C 312.5,241.167 312.5,240.833 312.5,240.5C 314.947,240.385 316.947,239.385 318.5,237.5 Z"/></g>
<g><path style="opacity:0.635" fill="#b584ba" d="M 214.5,238.5 C 216.213,239.635 216.88,241.302 216.5,243.5C 209.833,243.5 203.167,243.5 196.5,243.5C 196.263,242.209 196.596,241.209 197.5,240.5C 200.087,241.816 203.087,242.483 206.5,242.5C 209.5,242.167 212.5,241.833 215.5,241.5C 214.873,240.583 214.539,239.583 214.5,238.5 Z"/></g>
<g><path style="opacity:0.633" fill="#b281b7" d="M 357.5,240.5 C 359.571,241.809 362.071,242.475 365,242.5C 367.929,242.475 370.429,241.809 372.5,240.5C 373.404,241.209 373.737,242.209 373.5,243.5C 369.327,242.956 365.494,243.623 362,245.5C 360.599,243.808 358.766,243.141 356.5,243.5C 356.263,242.209 356.596,241.209 357.5,240.5 Z"/></g>
<g><path style="opacity:0.431" fill="#cdaacf" d="M 410.5,241.5 C 412.027,241.427 413.027,242.094 413.5,243.5C 411.973,243.573 410.973,242.906 410.5,241.5 Z"/></g>
<g><path style="opacity:0.64" fill="#b98bbd" d="M 494.5,232.5 C 495.485,236.634 495.818,240.968 495.5,245.5C 490.939,244.195 486.273,243.528 481.5,243.5C 478.713,243.574 476.213,244.24 474,245.5C 471.544,243.679 468.711,243.012 465.5,243.5C 465.232,241.901 465.566,240.568 466.5,239.5C 466.5,240.5 466.5,241.5 466.5,242.5C 474.174,242.334 481.841,242.5 489.5,243C 491.101,243.273 492.601,243.773 494,244.5C 494.499,240.514 494.666,236.514 494.5,232.5 Z"/></g>
<g><path style="opacity:0.42" fill="#cca6d0" d="M 77.5,241.5 C 77.573,243.027 76.9063,244.027 75.5,244.5C 75.427,242.973 76.0937,241.973 77.5,241.5 Z"/></g>
<g><path style="opacity:0.569" fill="#ccadcf" d="M 413.5,243.5 C 416.5,243.5 419.5,243.5 422.5,243.5C 420.81,244.103 419.31,245.103 418,246.5C 416.69,245.103 415.19,244.103 413.5,243.5 Z"/></g>
<g><path style="opacity:0.659" fill="#c7a6ca" d="M 526.5,243.5 C 529.167,243.5 531.833,243.5 534.5,243.5C 531.715,245.605 529.049,245.605 526.5,243.5 Z"/></g>
<g><path style="opacity:0.024" fill="#e5d1e7" d="M 98.5,243.5 C 98.2624,245.404 97.2624,246.738 95.5,247.5C 95.7376,245.596 96.7376,244.262 98.5,243.5 Z"/></g>
<g><path style="opacity:0.553" fill="#cfaad2" d="M 90.5,244.5 C 89.5,246.167 88.1667,247.5 86.5,248.5C 86.8333,246.167 88.1667,244.833 90.5,244.5 Z"/></g>
<g><path style="opacity:0.263" fill="#d7bada" d="M 75.5,244.5 C 75.573,246.027 74.9063,247.027 73.5,247.5C 73.427,245.973 74.0937,244.973 75.5,244.5 Z"/></g>
<g><path style="opacity:0.824" fill="#ee9ec1" d="M 118.5,244.5 C 119.458,246.302 120.125,248.302 120.5,250.5C 118.72,249.01 118.054,247.01 118.5,244.5 Z"/></g>
<g><path style="opacity:0.004" fill="#ecd4e0" d="M 123.5,249.5 C 122.852,253.986 121.852,254.32 120.5,250.5C 121.609,250.443 122.609,250.11 123.5,249.5 Z"/></g>
<g><path style="opacity:0.875" fill="#bf93c3" d="M 73.5,248.5 C 73.8799,250.698 73.2132,252.365 71.5,253.5C 71.4021,251.447 72.0687,249.78 73.5,248.5 Z"/></g>
<g><path style="opacity:0.078" fill="#d1bcd3" d="M 83.5,244.5 C 83.2053,246.735 83.5386,248.735 84.5,250.5C 83.8549,251.812 82.8549,252.812 81.5,253.5C 80.5065,250.144 81.1731,247.144 83.5,244.5 Z"/></g>
<g><path style="opacity:0.49" fill="#cda7d1" d="M 71.5,254.5 C 71.5905,257.152 70.9238,259.485 69.5,261.5C 69.4095,258.848 70.0762,256.515 71.5,254.5 Z"/></g>
<g><path style="opacity:0.774" fill="#f0a0c0" d="M 131.5,237.5 C 131.442,251.994 131.442,266.327 131.5,280.5C 130.348,283.857 128.682,283.857 126.5,280.5C 127.496,280.414 128.329,280.748 129,281.5C 129.448,266.654 130.281,251.988 131.5,237.5 Z"/></g>
<g><path style="opacity:1" fill="#ed91b5" d="M 115.5,264.5 C 116.309,265.469 117.309,266.302 118.5,267C 118.167,267.333 117.833,267.667 117.5,268C 119.107,269.049 119.773,270.549 119.5,272.5C 117.127,270.421 115.794,267.754 115.5,264.5 Z"/></g>
<g><path style="opacity:0.102" fill="#d8c5da" d="M 84.5,267.5 C 84.4484,270.346 83.4484,272.68 81.5,274.5C 81.9348,271.843 82.9348,269.509 84.5,267.5 Z"/></g>
<g><path style="opacity:0.059" fill="#ddc6df" d="M 80.5,277.5 C 80.9154,280.288 80.2487,282.955 78.5,285.5C 78.5651,282.572 79.2318,279.905 80.5,277.5 Z"/></g>
<g><path style="opacity:0.71" fill="#cca6d0" d="M 78.5,285.5 C 78.2397,289.302 77.4064,292.969 76,296.5C 74.5187,295.529 73.6854,294.196 73.5,292.5C 74.1499,292.804 74.8165,293.137 75.5,293.5C 76.2568,290.63 77.2568,287.964 78.5,285.5 Z"/></g>
</svg>
